<svg width="24" height="24" viewBox="0 0 24 24" fill="none" xmlns="http://www.w3.org/2000/svg">
<path d="M7 10H5C3.89543 10 3 9.10457 3 8V5C3 3.89543 3.89543 3 5 3H8C9.10457 3 10 3.89543 10 5V7" stroke="white" stroke-width="1.5" stroke-linecap="round" stroke-linejoin="round"/>
<path d="M14 7V5C14 3.89543 14.8954 3 16 3H19C20.1046 3 21 3.89543 21 5V8C21 9.10457 20.1046 10 19 10H17" stroke="white" stroke-width="1.5" stroke-linecap="round" stroke-linejoin="round"/>
<path d="M10 17V19C10 20.1046 9.10457 21 8 21H5C3.89543 21 3 20.1046 3 19V16C3 14.8954 3.89543 14 5 14H7" stroke="white" stroke-width="1.5" stroke-linecap="round" stroke-linejoin="round"/>
<path d="M17 14H19C20.1046 14 21 14.8954 21 16V19C21 20.1046 20.1046 21 19 21H16C14.8954 21 14 20.1046 14 19V17" stroke="white" stroke-width="1.5" stroke-linecap="round" stroke-linejoin="round"/>
<rect x="7" y="7" width="10" height="10" rx="2" stroke="white" stroke-width="1.5" stroke-linecap="round" stroke-linejoin="round"/>
<path d="M11.5 13.5L13 12L11.5 10.5" stroke="white" stroke-width="1.5" stroke-linecap="round" stroke-linejoin="round"/>
</svg>
